<?xml version="1.0" encoding="UTF-8"?><svg xmlns="http://www.w3.org/2000/svg" viewBox="0 0 720 359.41"><defs><style>.cls-1{fill:#fff;}.cls-2{fill:aqua;}.cls-3{fill:#ff00e7;}.cls-4{fill:#f0f;}</style></defs><g id="Layer_1"><rect width="720" height="359.41"/></g><g id="introducing"><g><path class="cls-1" d="M265.71,64.75h-4.56l-5.09-19.73-4.85,19.73h-4.51l-7.3-25.15h4.42l5.14,19.59,4.8-19.59h4.9l4.94,19.59,4.99-19.59h4.51l-7.39,25.15Z"/><path class="cls-1" d="M279.38,53.33c.1,5.76,3.22,8.45,7.39,8.45,3.22,0,5.47-1.34,6.58-4.66h4.03c-1.01,5.09-4.99,8.35-10.75,8.35-7.06,0-11.42-4.9-11.42-13.15s4.51-13.44,11.52-13.44c4.7,0,8.54,2.5,10.18,6.62,.72,1.87,1.01,4.18,1.01,7.82h-18.53Zm7.3-10.75c-4.03,0-6.86,3.02-7.2,7.49h14.11c.05-.1,.05-.29,.05-.29,0-3.94-3.02-7.2-6.96-7.2Z"/><path class="cls-1" d="M303.24,64.75V29.76h3.98v35h-3.98Z"/><path class="cls-1" d="M323.26,65.47c-6.82,0-11.14-4.94-11.14-13.06s4.42-13.54,11.18-13.54c5.62,0,9.46,3.02,9.94,9.17h-4.03c-.48-3.5-2.59-5.47-5.95-5.47-4.37,0-6.96,3.55-6.96,9.84,0,5.95,2.64,9.36,7.06,9.36,3.41,0,5.47-1.63,6.14-5.66h4.03c-.48,5.76-4.27,9.36-10.27,9.36Z"/><path class="cls-1" d="M347.74,65.47c-7.15,0-11.38-4.85-11.38-13.3s4.27-13.3,11.33-13.3,11.42,4.8,11.42,13.49-4.32,13.11-11.38,13.11Zm0-22.9c-4.46,0-7.2,3.55-7.2,9.6s2.74,9.6,7.2,9.6,7.2-3.55,7.2-9.46c0-6.24-2.69-9.74-7.2-9.74Z"/><path class="cls-1" d="M393.82,64.75v-17.33c0-3.17-1.68-5.04-4.61-5.04-3.26,0-5.95,2.93-5.95,6.58v15.79h-3.98v-17.33c0-3.22-1.68-5.04-4.66-5.04-3.26,0-5.9,2.93-5.9,6.58v15.79h-3.98v-25.15h3.65v3.55c2.16-3.02,4.37-4.27,7.73-4.27s5.28,1.15,6.77,3.84c2.35-2.83,4.37-3.84,7.73-3.84,4.71,0,7.2,2.5,7.2,7.01v18.87h-3.98Z"/><path class="cls-1" d="M407.4,53.33c.1,5.76,3.22,8.45,7.39,8.45,3.22,0,5.47-1.34,6.58-4.66h4.03c-1.01,5.09-4.99,8.35-10.75,8.35-7.06,0-11.42-4.9-11.42-13.15s4.51-13.44,11.52-13.44c4.7,0,8.54,2.5,10.18,6.62,.72,1.87,1.01,4.18,1.01,7.82h-18.53Zm7.3-10.75c-4.03,0-6.87,3.02-7.2,7.49h14.11c.05-.1,.05-.29,.05-.29,0-3.94-3.02-7.2-6.96-7.2Z"/><path class="cls-1" d="M450.26,65.09c-3.12,0-4.85-1.44-4.85-3.98v-18.24h-3.41v-3.26h3.41v-6.91h3.98v6.91h4.13v3.26h-4.13v16.47c0,1.78,.48,2.26,2.21,2.26,.77,0,1.39-.05,1.92-.19v3.36c-1.34,.24-2.3,.34-3.26,.34Z"/><path class="cls-1" d="M467.3,65.47c-7.15,0-11.38-4.85-11.38-13.3s4.27-13.3,11.33-13.3,11.42,4.8,11.42,13.49-4.32,13.11-11.38,13.11Zm0-22.9c-4.46,0-7.2,3.55-7.2,9.6s2.74,9.6,7.2,9.6,7.2-3.55,7.2-9.46c0-6.24-2.69-9.74-7.2-9.74Z"/></g></g><g id="glasses"><g><path class="cls-1" d="M477.31,158.5c-2.22,1.47-4.81,3.08-7.69,4.69-.52,1.67-.11,3.77-.87,5.32-2.37,1.07-2.07-2.46-1.86-3.56-2.09,.71-4.02,2.43-6.07,3.54-.37,.24-.11,.25,.04,.54-1.02,.27-1,1.9-1.69,2.66-.2,1.14-.9,2.01-1.04,3.19-.77,.69-1.11,1.58-1.45,2.47-.71,.16-.97,.71-1.49,.39-.58-1.32,.63-2.63,.76-3.96,.63-1.2,1.04-2.47,1.62-3.7-2.99,1.6-6.29,3.77-9.09,5.35-.94-.06-1.81-.21-2.37-1.18,1.29-1.8,4.26-2.32,6.42-3.82,1.95-1.37,4.32-2.59,6.58-3.82,2.91-6.32,5.5-12.83,8.65-19.04,.94-.65,1.86-.37,2.65-.71,.63,.18,1.09,.88,1.25,1.33-.92,4.22-1.24,8.67-1.89,13.05,2.66-1.12,5-2.28,7.53-2.74Zm-14.6,6.34c1.38-.71,2.96-1.84,4.36-2.2,.44-3.28,.65-6.62,1.26-9.86-.05-.13-.16-.3-.37-.17-1.29,3.18-2.73,6.25-4.25,9.36-.07,.94-1.48,2.38-1,2.87Z"/><path class="cls-1" d="M487.75,145.92c-1.84,4.91-1.62,10.86-2.81,16.14-.55,.3-.66,.85-1.15,1.19-3.77,.45-4.99-4.31-5.52-7.44-1.02,2.82-1.89,5.75-2.03,9.02-.47,.12-.32,.52-.77,.69-.67-.16-1.2-.63-1.73-1.11,.11-5.46,3.02-9.53,3.45-14.79,.76-.43,1.71-.62,2.34-.44,.72,3.52,1.14,7.35,2.7,11.07,1.62-3.7,.95-8.47,3-11.97-.04-1.37,.46-2.52,.86-3.68,.69-.35,1.18-.12,1.54,.15,.29,.51-.16,.67,.12,1.18Z"/><path class="cls-1" d="M517.43,132.3c-1.09,1.06-2.36,1.52-3.87,2.28-3.54,6.55-5.85,13.67-9.58,20.14,3.19-1.47,6.21-4,10.13-4.86,.74,1.88-3,2.57-3.75,3.87-2.51,1.12-4.72,2.89-7.25,4.22-2.42,1.49-4.6,4.48-7.73,4.3-.27-.61-.63-.74-.66-1.39,2.39-1.84,5.5-3.28,8.31-5.53,.34-.33-.53-.06-.59-.35-.42-1.99,.69-3.72,1.5-5.55,1.82-3.98,3.52-8.28,5.16-12.2-4.01,1.46-6.87,3.73-10.24,5.82-.72-.15-1.27-.56-1.52-1.65,3.73-3.5,8.25-5.25,12.99-7.69,2.96-1.84,6-2.9,9.65-3.82,.33,1.62-1.14,1.64-2.55,2.41Zm-13.94,22.75"/><path class="cls-1" d="M523.33,132.81c2.06-.8,4.89-2.85,6.63-2.41,.23,1.35-1.52,1.73-2.64,2.44-1.46,1.19-2.92,2.24-4.59,3.1-1.13,2.35-1.35,5.14-2.61,7.44,.16,1.27-.89,2.06-.67,3.36-.81,.86-.21,2.37-1.77,2.84-.31-.29-.51-.84-.75-1.21,.06-3.75,1.5-6.83,1.93-10.41-1.54,.82-4.19,2.65-6.67,2.58-.5-.68-.72-1.42-1.03-1.98,.52-1.11,1.67-.61,2.76-.85,2.02-.48,3.88-2.13,5.75-2.86,.67-1.11,.62-2.93,2.91-2.95,.23,.22,.44,.66,.74,.91Z"/><path class="cls-1" d="M545.75,130.12c.49-.33,2.14-1.55,2.53-.36-2.43,2.31-6.31,3.73-9.58,5.68-1.27,2.56-1.81,5.41-2.96,8.02-.67,.4-.97,.56-1.63,.29-.71-2.09,.13-4.29,.68-6.12-1.82,.76-2.51,1.37-4.06,2.19-1.34,1.92-1.69,4.34-2.66,6.44,.13,.51,.49,.64,.61,1.26-.38,.09-.19,.48-.32,.68-3.54,1.24-2.9-4.05-1.9-5.49-1.39,.1-1.27,1.84-3.19,2.03-.38-.48-.89-.75-1.06-1.66,1.38-1.68,3.51-2.71,5.31-3.67,1.89-2.68,2.36-6.02,4.16-8.77,.39-.35,.73-.11,1.14-.52,.37,.17,.88,.04,1.18,.44-.06,2.37-1.7,4.04-2.37,6.12,1.22,.27,2.9-1.87,4.29-1.97,.82-2.95,2.36-6.02,2.86-8.7,1.06-1.15,2.57-1.5,3.03-.23,.31,.86-.49,1.61-.77,2.38-.58,1.49-.91,3.4-1.39,4.18,1.88-.02,3.76-1.88,6.09-2.22Z"/><path class="cls-1" d="M551.78,124.81c.12,2.15,.28,4.29,.28,6.39,3.1-.87,4.78-2.86,7.75-2.98,.21,.84-1.02,.98-1.39,1.53-2.04,1-3.95,2.35-5.85,3.3-.59,1.03,1.03,3.1-.08,3.86-1.52,.45-1.84-1.12-2.07-2.46-1.14,.37-2.93,1.78-4.23,2.56-.86,1.28-1.11,4.54-3.48,3.77-.42-.87,.27-1.22,.34-1.86-1.21,1.16-3.1,1.59-3.9,.09-.06-.44,.48-.64,.47-1.09,2.08-.76,2.85-1.29,4.55-2.37,1.83-4.24,3.43-8.55,5.07-12.88,.74-.78,1.69-.97,2.58-.48,.56,1.12,.16,1.83-.06,2.63Zm-4.4,8.96c.81-.45,1.43-.98,2.49-1.31,.07-1.2-.12-2.56-.24-3.9,.39-.19-.33-.49,0,0-.94,1.62-1.48,3.5-2.24,5.21Z"/><path class="cls-1" d="M570.76,121.52c-.24-2.21,1.04-4.72-.55-6.85-5.67,.84-9.94,6.53-11.4,10.79-.68,1.93-.79,4.27-.63,6.26,.49,1.91,1.35,3.14,2.5,3.64,.79-.08,1.32-.02,2.3-.12,3.05-1.16,5-2.54,7.25-4.37,2.31-1.51,3.83-3.95,6.22-5.07,.15,1.53-1.5,2.18-1.99,3.38-1.12,.87-1.97,1.89-2.78,2.9-.99,.36-1.39,.96-1.78,1.57-1.68,.71-2.44,1.86-4.04,2.65-1.16,.47-1.87,.48-2.57,1.09-1.11,.04-2.27,.21-3.32,.14-4.24-.55-5.46-7.72-4.51-11.13,2.5-5.76,5.02-11.48,13.44-14.44,5.04-.46,5.49,6.53,4.54,10.1-1.07,.29-1.96,.1-2.69-.5Z"/><path class="cls-1" d="M586.46,112.18c.12,2.15,.28,4.29,.28,6.39,3.1-.87,4.78-2.86,7.75-2.98,.21,.84-1.02,.98-1.39,1.53-2.04,1-3.95,2.35-5.85,3.3-.59,1.03,1.03,3.1-.08,3.86-1.52,.45-1.84-1.12-2.07-2.46-1.14,.37-2.93,1.78-4.23,2.56-.86,1.28-1.11,4.54-3.48,3.77-.42-.87,.27-1.22,.34-1.86-1.21,1.16-3.1,1.59-3.9,.09-.06-.44,.48-.64,.47-1.09,2.08-.76,2.85-1.29,4.55-2.37,1.83-4.24,3.43-8.55,5.07-12.88,.74-.78,1.69-.97,2.58-.48,.56,1.12,.16,1.83-.06,2.63Zm-4.4,8.96c.81-.45,1.43-.98,2.49-1.31,.07-1.2-.12-2.56-.24-3.9,.39-.19-.33-.49,0,0-.94,1.62-1.48,3.5-2.24,5.21Z"/><path class="cls-3" d="M455.23,192.13c.65,6.71,.49,11.72,2.39,17.52,.57-.26,.75-.74,1.08-1.11,1.91-5.14,3.63-10.37,5.34-15.64,.39-.19,.39-.6,.71-.87,.04-1.29,.8-2.28,1.09-3.46,.61-.28,.66-.85,1.2-1.2,.12,.62,.21,1.15,.48,1.31-2.31,7.27-3.88,14.9-6.94,21.78-.55,.3-.68,.81-1.06,1.15-2.55,1.29-4.25-.04-5.16-2.82-1.38-4.2-.64-10.6-1.53-13.9-1.77,3.71-2.81,8.69-4.25,12.89-.59,1.9-1.08,3.92-1.85,6.7-.43,1.64-1.07,5.91-2.9,6.21-1.63,.29-2.1-2.25-.63-2.99,.52-1.93,.76-3.95,1.96-5.57,.1-3.66,2.4-6.19,2.53-9.61,2.05-3.5,2.18-7.9,4.41-11.31-.16-.45,.15-.72-.02-1.17,.79-.08,1.23-.14,2.17-.23,.65,.53,.66,1.39,.99,2.3Z"/><path class="cls-3" d="M483.47,187.06c-3.06,2.39-7.35,4.51-11.02,6.92-.82,1.12-1.15,2.46-1.7,3.74,1.87-.89,3.83-2.11,6.57-3,.93,.17,1.5-1.06,2.08,.11-.37,1.51-3.11,1.85-4.12,3.29-1.04,.38-1.77,.9-2.39,1.43-1.5,.8-2.69,1.03-3.01,2.27,2.09,.41,3.93-1.28,5.7-1.31-.24,2.28-3.47,3.66-5.97,4.22-.36-.28-.9-.23-1.32-.39-1.24-1.03-2.96-3.21-.65-4.16,.18-1.19,.55-2.29,.99-3.32-.47-.59-1.29-.6-1.52-1.8,.14-.05,.02-.21,.04-.32,.29-.62,1.31-.89,1.66-1.47,2.79-.76,2.43-3.44,5.24-3.85,.35,.13,.68,.32,1.01,.4,2.75-1.41,5.09-2.72,8.06-3.39,.11,.16,.07,.74,.34,.64Z"/><path class="cls-3" d="M496.76,194.53c1.6-.38,3.37-1.12,4.44-.29-1.61,1.76-4.18,2.13-6.33,2.41-2.68,1.33-6.66,.38-9.38-.37-3.06,.86-2.43,3.44-2.33,5.8-.47,.68-1.13,.97-1.89,.84-1.61-1.76-1.06-4.31-.31-6.17-.51-.43-.46-.7-.66-1.39,.29-.62,.39-1.32,1.48-1.56,1.47-2.27,2.21-4.89,3.55-7.22,1.46-1.6,2.97-3.63,4.38-4.96,2.59-2.27,7.44-2.71,7.78,2.02-1.63,4.37-4.98,7.79-9.05,10.65,2.33,.94,5.42,.43,8.31,.24Zm-2.73-9.89c.37-.8,.33-1.76,0-2.51-5.38,2.47-7.16,6.85-8.95,11.48,2.96-2.1,7.44-5.67,8.94-8.98Z"/><path class="cls-3" d="M504.29,192.76c-.49,.33,0,1.12-.52,1.37-.77,.28-1.15-.35-1.6-.75-1-4.85,1.27-8.43,1.62-12.95-1.25,.5-2.99,1.75-3.86,2.73-.75,.17-1.28-.15-1.82-.51-.09-.68-.19-1.36-.12-2,4.31-2.49,7.49-4.41,12.15-6.21,4.8-1.7,9.51-2.8,11.5,1.28,.93,5.79-4.16,9.64-7.87,13.59-1.37,1.01-2.85,2.01-4.03,3.1-1.39,.66-2.71,1.24-4.1,1.65-.16-1.01-1.45-.34-1.34-1.3Zm-.05-.13c.72-.26,1.5-.5,1.67-1.02,.98,.16,1.71-1.18,2.96-1.54,2.75-2.28,5.34-4.55,7.61-7.01,.23-.08-.04-.39,.12-.5,1.62-1.72,3.11-3.53,2.76-6.17-3.66-2.19-8.2,.48-12.71,2.28-.4,4.79-2.77,9.23-2.43,13.96Z"/><path class="cls-3" d="M542.64,160.31c.65,6.71,.49,11.72,2.39,17.52,.57-.26,.75-.74,1.08-1.11,1.91-5.14,3.63-10.37,5.34-15.64,.39-.19,.39-.6,.71-.87,.04-1.29,.8-2.28,1.09-3.46,.62-.28,.66-.85,1.2-1.2,.12,.62,.21,1.15,.48,1.31-2.31,7.27-3.88,14.9-6.94,21.78-.55,.3-.68,.81-1.06,1.15-2.55,1.28-4.25-.04-5.16-2.82-1.38-4.2-.64-10.6-1.53-13.9-1.77,3.71-2.82,8.69-4.25,12.89-.58,1.9-1.08,3.92-1.85,6.7-.43,1.64-1.07,5.91-2.9,6.21-1.63,.29-2.1-2.25-.63-2.99,.52-1.93,.76-3.95,1.96-5.57,.1-3.66,2.4-6.19,2.53-9.61,2.04-3.5,2.18-7.9,4.41-11.31-.16-.45,.15-.72-.02-1.17,.79-.08,1.23-.14,2.17-.23,.65,.53,.66,1.39,.99,2.3Z"/><path class="cls-3" d="M564.04,156.25c2.89-.75,4.36-1.64,6.66-1.35-.43,1.48-3.31,2.28-4.8,2.82-.79,.64-1.94,1.12-2.98,1.64-2.14,3.79-3.7,7.94-5.03,12.15,2.37-.92,4.44-2.54,6.73-2.71,.44-.06,.12-.66,.77-.69,.23,.63,.52,.02,.92,.28,.21,.59-.5,.74-.62,1.25-2.92,1.52-6.29,3.21-8.51,4.83-1.5,.5-2.66,1.68-3.92,.87-.32-1.16,.82-1.53,1.55-2.05,.63-4.31,2.35-8.01,3.87-11.83-1.9,1.1-5.9,3.73-5.51,.01,2.04-1.26,4.15-2.22,6.79-3.39,1.02-1.14,.77-2.79,2.86-3.09,.35,.54,1.09,.32,1.22,1.24Z"/><path class="cls-3" d="M583.77,148.56c-4.64,1.84-7.05,4.76-9.23,7.75-2.43,2.31-3.62,5.2-4.5,8.28,.17,.6,.11,1.14,.2,1.67,3.13,2.13,7.57-2.09,9.75-3.96-1.08-.02-1.85,1.08-3.2,1.32-.53-.32-1.02-1.67-1.08-2.11,.09-.59,1.02-.83,1.79-1.11,2.46-1.25,4.91-2.66,6.84-3.82l1.44-.53c.75-.32,.64-1.05,1.39-1.38,.58-.37,.79,.07,1.13,.15,1.85-1.08,4.6-1.11,5.87-2.39-.44,1.03,1.14-.11,1.77,.38,.03,1.21-1.91,1.21-2.73,2.17-1.83,.72-3.22,1.68-4.87,2.49-1.44,1.8-1.75,4.16-2.9,6.06-.36,1.26,.02,2.85-1.53,3.52-1.02-1.11-1.2-3.29-.44-4.44-3.07,2.24-6.45,6.69-12,7.03-4.76-1.28-3.78-7.31-2.09-10.53,1.73-3.39,5.23-7.52,7.83-9.64,1.58-1.29,3.44-2.48,5.3-3.26,.33-.07,.58,.05,.95-.19,.37,.17,.8,.22,1.13,.3,.08,.22,.22,.33,.42,.31,.42,1.02,1.51,2.05,.46,2.95-.84,.21-.94-1.04-1.7-1.02Z"/><path class="cls-3" d="M613.4,143.8c.49-.33,2.14-1.55,2.53-.36-2.43,2.31-6.31,3.73-9.58,5.68-1.27,2.56-1.81,5.41-2.96,8.02-.67,.4-.97,.56-1.63,.29-.71-2.09,.12-4.29,.68-6.12-1.82,.76-2.51,1.37-4.06,2.19-1.34,1.92-1.69,4.34-2.66,6.44,.13,.51,.49,.64,.61,1.26-.38,.09-.19,.48-.32,.68-3.53,1.24-2.9-4.05-1.9-5.49-1.39,.1-1.27,1.84-3.19,2.03-.38-.48-.89-.75-1.06-1.66,1.38-1.68,3.51-2.71,5.3-3.67,1.89-2.68,2.36-6.02,4.17-8.77,.39-.34,.73-.11,1.14-.52,.37,.17,.88,.04,1.18,.44-.06,2.37-1.7,4.04-2.37,6.12,1.22,.27,2.9-1.87,4.29-1.97,.82-2.95,2.36-6.02,2.86-8.7,1.06-1.15,2.57-1.5,3.03-.24,.31,.86-.49,1.61-.77,2.38-.58,1.49-.91,3.4-1.39,4.18,1.88-.02,3.76-1.88,6.09-2.22Z"/><path class="cls-3" d="M619.13,136.25c2.06-.8,4.89-2.85,6.63-2.41,.23,1.35-1.52,1.73-2.64,2.44-1.46,1.19-2.91,2.23-4.59,3.1-1.13,2.35-1.35,5.14-2.61,7.44,.16,1.27-.88,2.06-.67,3.36-.81,.86-.21,2.38-1.77,2.84-.31-.3-.51-.84-.75-1.21,.06-3.75,1.5-6.83,1.93-10.41-1.54,.82-4.19,2.65-6.67,2.58-.5-.68-.72-1.42-1.03-1.98,.52-1.11,1.67-.61,2.76-.85,2.02-.48,3.88-2.13,5.75-2.86,.67-1.11,.62-2.93,2.91-2.95,.23,.22,.44,.65,.74,.91Z"/><path class="cls-1" d="M475.92,225.97c-2.6,3.4-5.04,6.79-6.4,10.76,5.25-3.39,9.95-6.63,15.82-9.18,.5,.12,1.14-.11,1.55,.2,.1,.83-.91,1.15-1.29,1.8-6.8,3.34-12.91,7.61-17.79,11.33-.19,1.29-1.07,2.54,.19,3.76,4.7,.69,9.35-3.35,13.57-5.09,.37,.58,.57,.15,1.04,.33-.02,1.34-1.72,2.01-2.99,2.72-.6,.32-1.08,.96-1.71,1.34-4.27,2.58-10.19,4.83-12.78,.97-.9-6.41,3.1-10.58,5.25-15.6-2.53,1.33-4.31,2.75-7.34,3.69-1.05,.07-2.24,.46-2.89-.22-.28-.77-.39-1.49,0-1.95,.94-.5,1.28,.15,2.08-.04,10.45-4.98,18.68-10.99,29.22-15.03,1.11-.46,3.15-1.04,4.1-1.64,.48,.49,1.5-.24,1.99,.14-5.88,4.19-14.64,7.07-21.64,11.71Z"/><path class="cls-1" d="M504.99,214.06c-1-.66-.49,1.46-1.5,.8-.77,2.38-2.28,3.69-3.13,5.99-.03-.09-.08-.23-.13-.36-.77,2.22-2.18,3.7-3.09,5.98,1.79,2.82,4.09,4.64,6.17,6.85-.24,1.72-2.13,2.15-3.69,1.65-.21-.44,.27-.51,.31-.83-1.5-1.45-3.35-3.17-4.21-5.11-1.75,.94-2.08,3.41-3.74,4.73,.09,.94-.79,1.46-.77,2.38,1.58,.14,3.29-.94,4.79-1.03-.4,2.55-5.29,3.15-7.51,4.06-1.2-.63-.84-2.3-.14-3.32,.47-.68,.5-1.87,1.05-2.73,1.36-2.29,3.59-4.32,4.08-6.19-.86-2.09-3.26-3.05-3.07-5.21,2.39-1.43,3.4,1.47,4.93,2.6,1.96-2.61,3.7-5.28,5.65-7.93,.52-.24,.49,.79,.87,.86-.3-1.12-.04-1.52,.1-2.54,.42,.46,1.51-1.47,2.41-2.36,.27-.25,.87-.27,.72-.83,.39,.37,.44-.06,.4-.45,.96,1.08-.88,1.8-.5,2.99Zm-3.37,4.91c-.16-.3,.3-.31,.21-.54,.41,0,.15,.56-.21,.54Zm4.78-7.51c-.33,.22-.3-.4-.59-.35,.11-.4,.59-1.19,1.11-1.02-.12,.5-.51,.85-.53,1.36Zm1.51-1.88"/><path class="cls-1" d="M503.48,235.61c.43,.61,.76,1.51,.31,1.98-.68,.5-1.79,.14-2.32-.33-.43-4.13,1.58-7.17,2.06-10.91,1.24-2.49,1.03-5.59,2.7-7.88,.43-1.9,.75-3.85,1.5-5.55,.5-.44,1.56-.21,2.17-.07,1.71-2.46,6.39-4.06,8.11-1.16,1.9,7.18-3.89,12.76-9.2,16.27-1.46,.48-2.31,.94-3.3,1.05-.79,2.18-1.29,4.45-2.04,6.62Zm3.13-9.21c4.79-2.41,7.76-6.6,9.27-10.88-.11-1.14,.56-2.25-.32-3.41-.84-.05-1.23,.14-1.9,.54-4.51,2.92-6.25,8.92-7.05,13.75Z"/><path class="cls-1" d="M536.37,206.11c-3.06,2.39-7.35,4.51-11.02,6.92-.82,1.12-1.15,2.46-1.71,3.74,1.87-.89,3.83-2.11,6.57-3,.93,.17,1.51-1.06,2.08,.11-.37,1.51-3.11,1.85-4.12,3.29-1.04,.38-1.77,.9-2.39,1.43-1.5,.8-2.69,1.03-3.01,2.27,2.09,.41,3.93-1.28,5.71-1.31-.24,2.28-3.47,3.66-5.98,4.22-.36-.28-.9-.23-1.32-.39-1.24-1.03-2.96-3.21-.65-4.16,.18-1.19,.54-2.29,.99-3.32-.47-.59-1.29-.6-1.52-1.79,.14-.05,.02-.21,.04-.32,.29-.62,1.31-.89,1.66-1.47,2.79-.76,2.43-3.44,5.24-3.85,.35,.13,.68,.32,1.01,.4,2.76-1.41,5.09-2.72,8.06-3.39,.11,.16,.07,.74,.34,.64Z"/><path class="cls-1" d="M549.67,213.59c1.6-.38,3.37-1.12,4.44-.29-1.61,1.76-4.18,2.13-6.33,2.41-2.68,1.33-6.66,.38-9.38-.37-3.06,.86-2.43,3.44-2.33,5.8-.47,.68-1.13,.97-1.89,.84-1.61-1.76-1.06-4.32-.31-6.17-.51-.42-.46-.7-.66-1.39,.29-.61,.39-1.32,1.48-1.56,1.47-2.27,2.21-4.89,3.55-7.22,1.46-1.6,2.97-3.63,4.38-4.96,2.59-2.27,7.44-2.71,7.78,2.02-1.63,4.37-4.98,7.79-9.05,10.65,2.33,.94,5.42,.43,8.31,.24Zm-2.73-9.89c.37-.8,.33-1.75,0-2.5-5.38,2.47-7.16,6.85-8.95,11.48,2.97-2.1,7.44-5.67,8.94-8.98Z"/><path class="cls-1" d="M563,194.94c2.9-.75,4.36-1.64,6.66-1.35-.43,1.49-3.31,2.28-4.8,2.82-.79,.64-1.94,1.12-2.98,1.64-2.14,3.79-3.7,7.94-5.03,12.15,2.37-.92,4.44-2.54,6.73-2.71,.44-.06,.12-.66,.77-.69,.23,.63,.52,.02,.92,.28,.21,.59-.5,.74-.62,1.25-2.92,1.52-6.29,3.21-8.51,4.83-1.51,.5-2.66,1.68-3.92,.87-.32-1.16,.82-1.53,1.55-2.05,.63-4.32,2.35-8.01,3.87-11.83-1.9,1.1-5.9,3.73-5.51,.01,2.05-1.26,4.15-2.22,6.79-3.39,1.02-1.14,.77-2.79,2.86-3.08,.35,.54,1.09,.32,1.22,1.24Z"/><path class="cls-1" d="M583.06,189.12c-3.06,2.39-7.35,4.51-11.02,6.92-.82,1.12-1.15,2.46-1.71,3.74,1.87-.89,3.83-2.11,6.57-3,.93,.17,1.51-1.06,2.08,.11-.37,1.51-3.11,1.85-4.12,3.29-1.04,.38-1.77,.9-2.39,1.43-1.5,.8-2.69,1.03-3.01,2.27,2.09,.41,3.93-1.28,5.71-1.31-.24,2.28-3.47,3.66-5.97,4.22-.36-.28-.9-.23-1.32-.39-1.24-1.03-2.96-3.21-.65-4.16,.18-1.19,.55-2.29,.99-3.32-.47-.59-1.29-.6-1.52-1.79,.13-.05,.02-.21,.04-.32,.29-.62,1.31-.89,1.66-1.47,2.79-.76,2.43-3.44,5.24-3.85,.35,.13,.68,.32,1.01,.4,2.75-1.41,5.09-2.72,8.06-3.39,.11,.16,.07,.74,.34,.64Z"/><path class="cls-1" d="M594.51,183.68c-1.84,4.91-1.62,10.86-2.81,16.14-.55,.3-.66,.85-1.15,1.18-3.77,.45-4.99-4.31-5.52-7.44-1.02,2.82-1.89,5.75-2.03,9.02-.47,.12-.32,.52-.77,.69-.67-.16-1.2-.63-1.73-1.11,.11-5.46,3.02-9.53,3.45-14.8,.76-.43,1.71-.62,2.34-.44,.72,3.52,1.14,7.35,2.7,11.07,1.62-3.7,.95-8.47,3-11.97-.04-1.37,.46-2.52,.86-3.68,.69-.35,1.18-.12,1.54,.16,.29,.51-.16,.67,.12,1.18Z"/><path class="cls-1" d="M610.72,183.6c-.24-2.21,1.04-4.72-.55-6.85-5.67,.84-9.94,6.53-11.4,10.79-.68,1.93-.79,4.27-.63,6.26,.49,1.92,1.35,3.14,2.5,3.64,.79-.08,1.32-.02,2.3-.12,3.05-1.16,5-2.54,7.25-4.37,2.31-1.51,3.83-3.95,6.22-5.08,.15,1.53-1.5,2.18-1.99,3.38-1.12,.87-1.97,1.89-2.78,2.9-.99,.36-1.39,.96-1.78,1.57-1.68,.71-2.44,1.86-4.04,2.64-1.16,.47-1.87,.48-2.57,1.09-1.11,.04-2.27,.21-3.32,.13-4.24-.55-5.46-7.72-4.51-11.13,2.5-5.76,5.02-11.48,13.44-14.45,5.04-.46,5.49,6.53,4.54,10.1-1.07,.29-1.96,.1-2.69-.5Z"/><path class="cls-1" d="M632.76,171.03c-3.06,2.39-7.35,4.51-11.02,6.92-.82,1.12-1.15,2.46-1.71,3.74,1.87-.89,3.83-2.11,6.57-3,.93,.17,1.5-1.06,2.08,.11-.37,1.51-3.11,1.85-4.12,3.29-1.04,.38-1.77,.9-2.39,1.43-1.5,.8-2.69,1.03-3.01,2.27,2.09,.41,3.93-1.28,5.7-1.31-.24,2.28-3.47,3.66-5.97,4.22-.36-.28-.9-.23-1.32-.39-1.24-1.03-2.96-3.21-.64-4.16,.18-1.19,.54-2.29,.99-3.32-.47-.59-1.29-.6-1.52-1.79,.14-.05,.02-.21,.04-.32,.29-.62,1.31-.89,1.66-1.47,2.79-.76,2.43-3.44,5.24-3.85,.35,.13,.68,.32,1.01,.4,2.75-1.41,5.09-2.72,8.06-3.39,.11,.16,.07,.74,.34,.64Z"/></g><path class="cls-2" d="M266.11,201.65c-.2,.16-.14,.48,.03,.93-1.37-2.76-4.04-2.91-6.07-3.45-.08,.2,.05,.58-.2,.59-1.98-.4-3.41,.55-5.25-.32-1,.28-2.2,1.57-3.07,.34-1.2,.44-3.94,2.55-5.56,.82,0,.86-.63,.57-.59,1.25-1.2-1.28-3.27,2.65-4.8,.46-.45,.34-.34,1.07-.65,1.52-4.08,.88-7.22,1.17-9.56,3.22-.59-.9-1.65,.34-2.43,.37-.27-.59-.23-.77,.11-.56-.15-.55-.43-.61-.78-.41-.25,.18,.41,1.14,.24,1.37-.46,.17-.92,.34-1.16-.61-.3,.62-.65,.24-1.15,.16-.1,.72,.31,.14,.47,.86-2.52,1.26-5.06,1.76-7.5,2.99-.11-.3-.22-.61-.33-.91-.06,2-2.49,2.79-3.67,1.85-.27,.27-.31,.72-.36,1.16-.34,.21-.44-.78-.7-.77-.34,.64,.48,.6,.19,1.39-1.98-.83-2.19,1.74-3.74,.93-.18,.07,.17,.62-.06,.71-1.59-.62-2.04,1.43-3.53,1.8-.11-.3-.22-.61-.33-.91-.55,.2-.14,.91-.22,1.11-3.01,1.78-5.24,3.28-7.81,4.56-.24-.08-.35-.82-.58-.73-.3,.03,.23,.77,.25,1.11-.68-.44-.92,.34-1.39-.52-.46,.17-.11,.98-.23,1.37-.39-.2-.78-.4-1.16-.61-.3,.19,.12,.9,.04,1.27-1.16,.85-2.21,.55-3.11,1.82-.11-.3-.25-.68-.39-1.06-.55,.2-.18,.67,.11,1.16-1-.58-1.39,.5-2.18,1.05-.11-.3-.22-.61-.36-.56-.12,.82-.67,1.62-1.57,1,.32,1.17-1.82,3.5-3,2.12,.06,1.18-.49,.52-1.06,.39,.03,.51,.2,.7-.25,1.04-.5,.35-.38-.46-.64-.46-1.4,.77-1.58,2.55-3.39,2.18-.32,.55,.53,.15,.61,.81-.59,.39-2.3,1.87-3.23,1.18-.29,.36,.53,.75,.29,1.09-.47,.43-1.31,.56-1.59,1.09-.44-.35-.8-.91-1.31-.72-.36,.3,.34,.65,.39,1.06-1.79,.99-2.47,1.84-4.28,2.76-.25-.25-.33-.48-.3-.83-.61,.05,.16,1.15-.48,1.12-.11-.3-.22-.61-.36-.56-.13,.22-.08,.63,.11,1.16-1.22,.1-1.1,1.86-2.32,1.1-.26,.44-.56,.89-.68,1.45-2.62,.7-4.7,2.91-6.64,4.91-3.24,.58-4.53,4.22-6.81,4.02-.32,.55-.56,1.06-1.4,1.2-.46,.17-.14,.91-.46,1.19-2.89,.54-5.46,4.56-8.7,5.14-.11-.3-.22-.61-.33-.91-.52,.45-.91,.08-1.23-.5-.54-.06-.4,.49-.84,.56-.39-1.06-.47-1.29-.5-1.79,.3-.62,.93-1.19,1.79-1.68,4.31-2.25,8.8-5.86,12.83-8.62,1.39-.93,3.31-1.55,3.78-2.84,6.67-4.4,14.3-9.32,20.91-14.3,1.41,.43,1.83-1.87,3.39-1.75,.39-.23,.58-.56,.68-1.02,3.01-1.35,5.46-2.67,7.78-4.81,10.17-5.42,22.55-13.1,35.11-17.41,.08-.8,.43-.41,.92-.34,.96-.95,3.03-1.02,3.95-1.95,11.93-3.31,25.07-8.78,36.12-4.73,.52,1.27,1.27,1.34,1.74,3.06-.81,.21-.5,2.07-1.53,.82Zm-101.46,40.88,3.36-1.99c-.06-.15-.08-.23-.14-.38-.09,.03-.18,.07-.28,.1,.05,.15,.08,.23,.14,.38,.09-.03,.19-.07,.28-.1Zm3.17-2.36,5.65-4.03c.13-.22,.78-.02,.56-.46-.13,.22-.78,.03-.56,.46Zm9.97-6.12c-.14-.38-.33-.48-.58-.3,.06,.15,.11,.3,.17,.46,.14-.05,.28-.1,.42-.15Zm5.26-3.37c.07-.11,.23-.08,.2-.33-.11,.13-.28,.1-.2,.33Z"/><g><path class="cls-2" d="M100.66,196.86c-1.65,.75-2.56-.07-3.53-.63,.32-4.19,2.41-8.79,3.06-13.32,1.37-2.57,1.82-5.12,2.89-7.89,.98-2.58,2.72-4.98,3.7-7.57,1.53-4.01,1.02-8.59,2.81-12.31,1.41-.36,2.21,.58,3.09,1.33,.3,1.04-.04,1.78-.09,2.72,3.92-3.58,8.71-7.93,14.36-10.98,4.27-1.78,9.68-2.52,12.02,2,1.45,9.68-7.94,14.26-15.12,19.86-4.35,1.97-10.44,5.49-14.8,3.01-2.77,8-6.43,15.47-8.39,23.79Zm16.57-37.59c-2.2,3.87-7.45,6.32-7.13,11.43,1.89,.77,4.7-.17,6.8-.94,6.89-2.59,12.93-7.93,16.51-12.23,1.2-2.2,3.2-4.7,2.22-7.41-2.65-1.8-7.19,1.54-10.52,2.75-2.71,2.06-5.32,4.16-7.88,6.4Z"/><path class="cls-2" d="M138.76,158.73c.43,.76,.06,1.21,.49,1.97-1.17,3.11-2.23,7.8-.25,10.92,1.31-.4,1.21-1.52,2.43-1.96,3.71-6.27,6.43-12.94,8.63-19.96-.03-.3,.24-.39,.21-.69,.48,.06,1.08,.22,1.5,.53,.92,1.89,.24,2.76,.82,4.16-1.47,4.83-3.95,10.88-6.8,15.91-2.09,3.75-6.55,10.06-10.92,3.97-1.61-4.64-.42-7.91-.45-12.2,.72-1.18,.73-2.65,2-3.57,1.04-.3,1.65,.32,2.33,.92Z"/><path class="cls-2" d="M180.81,155.48c.02,1.53-.54,2.73-.89,4.09-3.89,4.72-11.03,9.16-17.43,11.18-1.65,.52-4.32,.8-6.34,.08-.28,.72,0,1.69-.3,2.34-1.16,1.04-2.34,.32-3.08-.65,.29-5.1,.87-10.07,2.18-14.69-.5-.97-.83-1-.99-2.1,.37-.67,.99-1.28,1.82-1.74,3.26-6.02,5.81-12.94,14.26-16.09,2.19-.11,3.19,2.22,2.4,4.27-.58,1.36-2.73,3.68-3.82,4.69-1.69,1.69-3.4,3.31-4.51,4.48,6.75-1.07,13.86-3.05,16.71,4.13Zm-3.29,.04c-1.09-4.67-15.83-.23-19.8,2.14-.41,3.53-1.43,6.82-1.47,10.52,1.27,.54,2.29,.17,4.02,.07,4.39-1.22,7.5-3.04,11.44-5.7,2.44-1.73,6.45-4.42,5.81-7.03Zm-10.27-12.39c-1.43,1.13-2.88,2.2-3.48,3.72,1.34-1.18,2.61-2.33,3.48-3.72Z"/><path class="cls-2" d="M205.25,145.2c.89,1.6-1.31,2.09-2.19,2.41-1.52,1.09-2.76,1.7-4.2,2.6-3.97,2.6-9.21,6.12-12.35,9.1-1.91,1.92-3.2,4.7-6.05,4.05-.75-.8-.75-1.65-1.75-2.28,0-1.07,.29-1.95,.31-2.95,2.54-4.84,5.5-9.99,7.73-15.25,.88-2.01,2.46-4.2,3.25-6.25,.15-.44,.26-1.17,.46-1.7,.29-1.11,.5-1.8,.44-3,1.05-2.38,4.52-1.72,4.59,1.63-.91,.25-.03,1.39-1.21,1.52-2.03,7.73-6.48,14.26-9.89,21.34,6.06-4.44,13.33-9.38,20.88-11.21Z"/><path class="cls-2" d="M216.62,125.17c4.35-1.12,6.55-2.46,10.01-2.03-.65,2.23-4.97,3.42-7.21,4.24-1.18,.97-2.92,1.68-4.47,2.47-3.22,5.7-5.56,11.93-7.56,18.26,3.57-1.38,6.68-3.81,10.12-4.07,.66-.09,.18-.99,1.16-1.04,.34,.95,.78,.02,1.38,.42,.32,.88-.75,1.12-.93,1.87-4.39,2.29-9.46,4.82-12.79,7.27-2.26,.75-3.99,2.53-5.9,1.3-.48-1.74,1.24-2.29,2.34-3.08,.94-6.49,3.53-12.04,5.81-17.78-2.85,1.65-8.86,5.61-8.29,.02,3.08-1.89,6.23-3.34,10.2-5.1,1.53-1.71,1.16-4.19,4.3-4.64,.52,.81,1.63,.48,1.83,1.87Z"/><path class="cls-2" d="M244.55,124.06c-.36-3.32,1.56-7.1-.83-10.3-8.52,1.26-14.93,9.81-17.13,16.22-1.02,2.9-1.19,6.42-.95,9.41,.74,2.88,2.02,4.71,3.76,5.47,1.18-.12,1.99-.03,3.46-.19,4.59-1.75,7.52-3.81,10.89-6.58,3.48-2.26,5.75-5.93,9.36-7.63,.22,2.3-2.26,3.28-2.99,5.08-1.68,1.3-2.96,2.84-4.17,4.36-1.49,.54-2.08,1.45-2.67,2.36-2.53,1.07-3.67,2.79-6.08,3.98-1.74,.71-2.81,.72-3.86,1.64-1.67,.07-3.42,.32-4.99,.2-6.37-.83-8.21-11.6-6.78-16.73,3.76-8.66,7.54-17.26,20.2-21.71,7.58-.69,8.26,9.82,6.83,15.18-1.61,.43-2.94,.15-4.04-.76Z"/><path class="cls-2" d="M160.07,183.1c-.36,.28-.59,.06-.89,.09,.31,.65,.27,1.36-.1,2.03-.32-.04-.58-.33-.75-.8-1.02,2.06,1.14,5.04-2.03,6.04,.06,.59,.04,.75,.55,.87-3.07,12.87-6.7,24.63-10.83,37.12-.93,1.03-2.23,1.89-2.82,3.02-1.63,.59-2.48-.48-3.89-.35-4.19-8.99-2.27-18.06-3.12-27.35-7.14,9.51-7.67,23.45-13.47,34.08-1.54,.41-2.58,.94-3.87,.33-.17-1.09-.85-1.07-1.25-1.54-1.15-5.49-.18-9.99,.72-14.47,.31-7.18,2.95-13.21,3.46-20.23,.59-1.13,.99-2.36,1.64-3.51,1.87-.76,3.03-.11,3.98,1.24-3.02,9.01-4.37,18.79-5.45,28.71,2.83-7.41,4.03-14.67,8.54-21.46-.15-1.48,.55-2.5,.76-3.81,2.27-1.36,1.97-3.87,4.63-4.99,1.48-.15,2.53,.62,3.42,1.6,1.69,8.45,.5,18.25,2.33,27.49,3.54-5.67,4.4-12.58,6.54-18.96,.28-.49,.27-.1,.81-.3-.41-.7-.14-1.02-.36-1.63,2.18-3.09,3.19-6.84,3.58-10.83,1.87-.76,2.12-3.46,1.98-5.33,1.33,.05,1.47-2.92,2.24-4.19,.25,.06,.38,.4,.76,.18-.77-.64,.46-2.55,.57-3.28,.55-.59,.38,.63,.83,.39,.09-.8-.53-1.88-.04-2.44,.91,.59,.43,1.38,1.52,2.29Zm-38.25,45.56c.03,.3-.17,.6,.22,.61-.1-.27,.17-.6-.22-.61Zm33.46-38.67,1.56-.57,1.65-3.29c-.1-.27-.2-.54-.3-.81,.52-.04,1.18,.49,.3,.81Zm.17-2.06"/><path class="cls-2" d="M175.54,215.25c-.86,1.01-2.26,.98-3.53,1.9-.91,.03-1.96,.33-3.06,.66-4.85,.61-8.59-1.25-11.18-5.61-3.46-13.71,5.75-20.91,14.59-27.42,.14-.05,.16,.02,.3,.2,3.96-1.98,7.59-1.3,10.64,.12,1.04,2.23,2.59,3.74,4.48,4.51,5.15,7.19,.9,13.65-2.49,18.26-.51,.72-.99-.18-1.38,.42-.74,1.34-1.74,3.02-3.25,3.1-.91,1.71-3.09,3.74-5.12,3.86Zm-1.89-26.72c-.38,1.06-1.46,.84-2.35,1.55-6.02,4.57-14.66,15.01-8.28,23.44,8.51,5.66,21-7.72,23.54-14.86,.65-2.85-.7-7.2-3-8.66-.89,.09-1.34-.51-1.97-.97-1.36,.27-2.69,.21-3.75-.17-.87-.91,.12-1.35,.14-1.74-.36,.06-.7,.18-.97,.28-.73-.12-2.21,.88-3.35,1.14Zm-1.48,29.26"/><path class="cls-2" d="M216.21,194.3c2.4-.57,5.07-1.69,6.68-.43-2.42,2.65-6.28,3.21-9.51,3.61-4.03,2.01-10.01,.57-14.1-.55-4.6,1.29-3.65,5.17-3.51,8.72-.7,1.02-1.7,1.46-2.84,1.27-2.42-2.65-1.59-6.49-.46-9.28-.77-.64-.69-1.05-.99-2.1,.43-.92,.58-1.98,2.22-2.34,2.21-3.42,3.31-7.35,5.34-10.85,2.19-2.41,4.46-5.46,6.58-7.46,3.9-3.42,11.19-4.07,11.7,3.04-2.45,6.57-7.49,11.71-13.6,16.01,3.51,1.41,8.14,.65,12.5,.37Zm-4.1-14.86c.56-1.2,.5-2.64,.01-3.77-8.09,3.71-10.77,10.29-13.45,17.26,4.46-3.16,11.18-8.52,13.44-13.49Z"/><path class="cls-2" d="M230.4,174.01c2.31-1.68,3.13-4.06,5.99-5.48,1.49,.07,2.6,.82,3.44,2.28-.28,.49-1.06,1.31-1.82,1.12-3.7,3.96-9.02,7.28-10.79,12.14,4.06-2.78,9.47-4.98,12.16-6.04,3.14-.45,7.43-2.17,11.03-1.33-2.07,1.9-5.29,2.54-7.64,3.47-6.05,2.36-11.96,5.12-17.13,8.84-1.49,1.62-.75,4.27-2.24,5.88-1.19-.1-2.04-.95-2.49-2.62-.84,0-1.71,.16-2.57,.32-.92-.43-2.21-1.65-2.29-2.7,2.03-3.27,5.45-5.9,8.04-8.92,2.06-4.9,2.7-10.5,4.74-15.47,1.46-.22,2.5,.55,3.5,1.18,.19,2.85-1.56,4.79-1.95,7.31Z"/><path class="cls-2" d="M261.12,163.91c-.83-.39-1.25-1.54-1.63-2.79-5.17,2.27-7.74,5.74-10.69,9.04,4.86,.07,11.09-2.65,14.45,.66,1.63,3.63-.47,5.47-1.39,7.8-4.28,3.86-9.89,8.05-17.05,8.43-.92-.43-2.47-1.1-2.36-2.68,7.27-.27,15.28-5.49,16.95-11.24-3.63-.68-11.98,3.36-14.01-1.35-1.25-3,1.94-4.16,2.24-6.73,4.75-2.57,7.07-9.26,13.49-8.52,.22,.61,.7,.67,.99,1.02,.22,2.3,.22,4.61-.99,6.35Z"/></g><g><path class="cls-2" d="M201.49,302.59c3.92-.54,8.6-1.37,11.81-1.04,.79-.18,1.44,.14,1.87-.29,.94,.43,2.56,.18,3.1,1.01-.65,.07-1.26,.18-1.76,.43-6.23,.36-12.74,1.15-18.32,2.48-1.91,1.66-3.64,3.49-5.18,5.51,2.27-.4,4.25-1.08,6.62-1.37,.29,.22,.76,.29,.72,.83,0,.47-.68,.29-.72,.72-2.92,.76-5.69,1.66-8.71,2.3-1.76,1.51-2.84,3.71-4.75,5.08-.22-.14-.5-.22-.76-.32,.29-1.98,1.51-2.99,2.59-4.14-.43-.4-.43-1.76,0-2.16,.76,0,1.48,0,1.98-.22,1.4-1.94,3.13-3.6,4.57-5.51-1.73,.32-3.31,.79-5.4,.72-.43-.47-.4-1.37,0-1.94,3.78-.32,8.24-.5,10.15-3.24,.76-.14,1.4-.43,1.98-.18,.29,.4,.54,.83,.22,1.33Z"/><path class="cls-2" d="M212.94,304.35c2.23,.22,3.49-.04,5.04,.76-.68,.94-2.92,.76-4.1,.76-.72,.25-1.66,.29-2.52,.4-2.48,2.12-4.64,4.64-6.66,7.27,1.91-.04,3.78-.65,5.44-.18,.32,.07,.25-.43,.72-.29,0,.5,.36,.14,.58,.43,0,.47-.54,.4-.76,.72-2.45,.32-5.26,.65-7.23,1.22-1.19-.04-2.3,.5-2.99-.4,.07-.9,.97-.86,1.62-1.04,1.55-2.88,3.71-5.04,5.76-7.34-1.62,.29-5.11,1.12-3.89-1.4,1.76-.36,3.49-.5,5.65-.65,1.01-.54,1.26-1.76,2.81-1.44,.11,.47,.68,.5,.54,1.19Z"/><path class="cls-2" d="M225.33,314.07c1.22,.14,2.66,.07,3.2,.94-1.58,.83-3.49,.43-5.08,.07-2.23,.25-4.79-1.44-6.52-2.66-2.38-.18-2.59,1.8-3.13,3.49-.5,.36-1.04,.4-1.55,.11-.68-1.66,.36-3.31,1.37-4.43-.25-.43-.14-.61-.11-1.15,.36-.36,.61-.83,1.44-.72,1.62-1.22,2.81-2.88,4.36-4.18,1.44-.76,3.02-1.8,4.36-2.38,2.41-.94,5.94,0,4.97,3.42-2.27,2.66-5.51,4.21-9.11,5.18,1.4,1.26,3.71,1.69,5.8,2.3Zm.61-7.67c.47-.47,.68-1.15,.65-1.76-4.43,.36-6.8,2.99-9.25,5.79,2.63-.72,6.7-2.09,8.6-4.03Z"/><path class="cls-2" d="M238.86,307.48c-.32-.32-.32-.94-.29-1.58-2.81,.18-4.61,1.37-6.55,2.41,2.27,.86,5.65,.65,6.66,2.77,.14,1.98-1.15,2.48-1.98,3.42-2.66,1.08-6.01,2.09-9.43,1.04-.36-.36-.97-.94-.65-1.66,3.46,1.12,8.1,.04,9.86-2.38-1.58-.94-6.19-.47-6.34-3.02-.07-1.62,1.62-1.62,2.2-2.77,2.66-.4,4.9-3.13,7.78-1.69,0,.32,.22,.43,.29,.65-.29,1.12-.68,2.2-1.55,2.81Z"/><path class="cls-2" d="M249.01,304.39c1.66-.04,4.18-.76,5.29,0-.18,1.01-1.51,.83-2.48,1.04-1.33,.47-2.63,.83-4.03,1.01-1.4,1.37-2.27,3.28-3.74,4.57-.22,.94-1.15,1.22-1.33,2.2-.79,.4-.76,1.62-1.98,1.55-.14-.29-.14-.72-.22-1.04,1.01-2.63,2.81-4.43,4.03-6.84-1.3,.18-3.64,.79-5.36,.11-.18-.61-.14-1.19-.22-1.66,.65-.65,1.33,0,2.16,.11,1.55,.18,3.28-.5,4.79-.54,.76-.61,1.19-1.91,2.81-1.33,.11,.22,.14,.58,.29,.83Z"/><path class="cls-2" d="M285.91,299.24c-.22,.07-.29-.07-.43-.11,.04,.36-.11,.68-.4,.94-.14-.07-.22-.25-.22-.5-.83,.79-.32,2.56-1.98,2.48-.07,.29-.11,.36,.11,.5-3.64,5.51-7.34,10.4-11.41,15.55-.61,.32-1.37,.5-1.84,.94-.86,0-1.08-.65-1.76-.83-.43-4.93,2.02-8.86,3.2-13.35-4.97,3.24-7.6,9.68-12.13,13.68-.79-.07-1.37,0-1.87-.5,.11-.54-.22-.65-.32-.94,.4-2.77,1.62-4.71,2.81-6.66,1.37-3.31,3.64-5.69,5.08-8.89,.47-.43,.86-.94,1.37-1.37,1.01-.04,1.44,.47,1.66,1.26-2.95,3.71-5.26,8.06-7.45,12.53,2.59-2.99,4.39-6.19,7.67-8.6,.18-.72,.68-1.08,1.01-1.66,1.3-.25,1.58-1.48,3.02-1.55,.72,.18,1.08,.72,1.33,1.33-.65,4.25-2.88,8.64-3.6,13.28,2.63-2.05,4.21-5.15,6.3-7.77,.22-.18,.14,0,.43,0-.07-.4,.11-.5,.11-.83,1.55-1.08,2.66-2.66,3.53-4.46,1.01-.04,1.58-1.26,1.84-2.16,.61,.25,1.19-1.12,1.76-1.58,.11,.07,.11,.25,.32,.22-.25-.43,.65-1.12,.83-1.44,.36-.18,.07,.36,.32,.32,.18-.36,.07-.97,.4-1.15,.32,.43-.04,.72,.32,1.33Zm-25.7,14.83c-.04,.14-.18,.25,0,.32,0-.14,.18-.25,0-.32Zm22.28-12.42,.83,0,1.33-1.26v-.43c.25,.07,.47,.43,0,.43Zm.43-.94"/><path class="cls-2" d="M294.98,305.39c-2.77,.9-6.34,1.3-9.54,2.05-.86,.58-1.44,1.44-2.16,2.2,1.55-.14,3.24-.5,5.4-.43,.61,.36,1.33-.36,1.44,.61-.65,.97-2.66,.5-3.74,1.26-.83,0-1.48,.18-2.05,.4-1.26,.18-2.16,.04-2.7,.83,1.37,.83,3.1,.11,4.36,.54-.76,1.55-3.38,1.69-5.29,1.44-.18-.29-.58-.4-.83-.61-.61-1.04-1.26-3.02,.61-3.1,.43-.79,.97-1.48,1.55-2.09-.18-.54-.76-.76-.61-1.66,.11,0,.07-.14,.11-.22,.36-.36,1.15-.29,1.55-.61,2.16,.18,2.59-1.8,4.68-1.37,.22,.18,.4,.4,.61,.54,2.3-.29,4.28-.61,6.55-.32,.04,.14-.14,.54,.07,.54Z"/><path class="cls-2" d="M292.14,314.75c-.43,.11-.29,.79-.72,.83-.61,0-.72-.54-.94-.94,.54-3.67,3.06-5.62,4.46-8.71-1.01,.04-2.56,.47-3.42,.94-.58-.07-.86-.43-1.15-.83,.11-.5,.22-1.01,.43-1.44,3.67-.65,6.41-1.19,10.15-1.26,3.82,.04,7.42,.47,7.77,3.85-.83,4.32-5.4,5.72-9.03,7.56-1.22,.36-2.52,.68-3.64,1.15-1.15,.11-2.23,.18-3.31,.11,.14-.76-.94-.61-.61-1.26Zm0-.11c.58,0,1.19,.04,1.44-.29,.65,.36,1.51-.4,2.48-.32,2.52-.9,4.93-1.84,7.16-2.99,.18,0,.07-.29,.22-.32,1.58-.79,3.1-1.69,3.53-3.64-2.02-2.48-5.9-1.76-9.54-1.66-1.51,3.28-4.32,5.79-5.29,9.21Z"/><path class="cls-2" d="M321.05,304.49c-2.56,2.99-3.92,7.24-6.12,10.66-.47,.07-.68,.43-1.12,.54-2.77-.65-2.41-4.32-1.98-6.66-1.44,1.73-2.81,3.56-3.74,5.83-.36-.04-.36,.29-.72,.29-.43-.29-.68-.76-.94-1.22,1.48-3.82,4.57-5.94,6.23-9.54,.65-.11,1.37,0,1.76,.29-.4,2.66-1.08,5.47-.94,8.5,2.09-2.2,2.84-5.72,5.18-7.67,.32-.97,.97-1.66,1.55-2.38,.58-.07,.86,.22,1.04,.5,.07,.43-.29,.43-.22,.86Z"/><path class="cls-2" d="M334.83,305.39c-2.77,.9-6.34,1.3-9.54,2.05-.86,.58-1.44,1.44-2.16,2.2,1.55-.14,3.24-.5,5.4-.43,.61,.36,1.33-.36,1.44,.61-.65,.97-2.66,.5-3.74,1.26-.83,0-1.48,.18-2.05,.4-1.26,.18-2.16,.04-2.7,.83,1.37,.83,3.1,.11,4.36,.54-.76,1.55-3.38,1.69-5.29,1.44-.18-.29-.58-.4-.83-.61-.61-1.04-1.26-3.02,.61-3.1,.43-.79,.97-1.48,1.55-2.09-.18-.54-.76-.76-.61-1.66,.11,0,.07-.14,.11-.22,.36-.36,1.15-.29,1.55-.61,2.16,.18,2.59-1.8,4.68-1.37,.22,.18,.4,.4,.61,.54,2.3-.29,4.28-.61,6.55-.32,.04,.14-.14,.54,.07,.54Z"/><path class="cls-2" d="M340.67,307.48c-.32-.32-.32-.94-.29-1.58-2.81,.18-4.61,1.37-6.55,2.41,2.27,.86,5.65,.65,6.66,2.77,.14,1.98-1.15,2.48-1.98,3.42-2.66,1.08-6.01,2.09-9.43,1.04-.36-.36-.97-.94-.65-1.66,3.46,1.12,8.1,.04,9.86-2.38-1.58-.94-6.19-.47-6.34-3.02-.07-1.62,1.62-1.62,2.2-2.77,2.66-.4,4.9-3.13,7.78-1.69,0,.32,.22,.43,.29,.65-.29,1.12-.68,2.2-1.55,2.81Z"/><path class="cls-2" d="M343.91,314.75c-.43,.11-.29,.79-.72,.83-.61,0-.72-.54-.94-.94,.54-3.67,3.06-5.62,4.46-8.71-1.01,.04-2.56,.47-3.42,.94-.58-.07-.86-.43-1.15-.83,.11-.5,.22-1.01,.43-1.44,3.67-.65,6.41-1.19,10.15-1.26,3.82,.04,7.42,.47,7.77,3.85-.83,4.32-5.4,5.72-9.03,7.56-1.22,.36-2.52,.68-3.64,1.15-1.15,.11-2.23,.18-3.31,.11,.14-.76-.94-.61-.61-1.26Zm0-.11c.58,0,1.19,.04,1.44-.29,.65,.36,1.51-.4,2.48-.32,2.52-.9,4.93-1.84,7.16-2.99,.18,0,.07-.29,.22-.32,1.58-.79,3.1-1.69,3.53-3.64-2.02-2.48-5.9-1.76-9.54-1.66-1.51,3.28-4.32,5.79-5.29,9.21Z"/><path class="cls-2" d="M369.86,306.04c-.47,1.55-.9,3.1-1.44,4.57,2.41,.18,4.1-.79,6.23-.11-.07,.65-.97,.43-1.37,.72-1.69,.18-3.38,.65-4.97,.83-.68,.58-.07,2.45-1.04,2.7-1.19-.07-1.01-1.26-.83-2.27-.9-.04-2.52,.5-3.64,.72-.94,.68-1.94,2.92-3.42,1.76-.07-.72,.5-.79,.72-1.22-1.15,.5-2.59,.32-2.77-.94,.07-.32,.5-.32,.61-.65,1.66,0,2.34-.18,3.82-.5,2.38-2.52,4.61-5.15,6.88-7.77,.72-.36,1.44-.25,1.94,.32,.11,.94-.36,1.33-.72,1.83Zm-5.4,5.18c.68-.11,1.26-.32,2.09-.29,.36-.83,.58-1.84,.83-2.81,.32-.04-.11-.43,0,0-1.08,.9-1.94,2.09-2.92,3.1Z"/><path class="cls-2" d="M386.85,303.42c-1.08,1.33-2.66,2.16-3.64,3.6-4.25,2.99-7.56,7.34-10.98,10.8-2.95-.61,1.12-3.42,1.55-4.57-.25-.14-.58-.18-.83-.32-.32-.54-.36-1.37-.32-2.27,.86-2.66,1.84-5.22,3.13-7.45,.65,.25,1.48,.72,1.55,1.22-1.08,2.2-2.05,4.46-2.81,6.95,.83,.11,2.34-1.37,2.38-1.44,2.7-2.81,5.47-5.47,8.42-7.99,.47,.14,.5,.11,1.01,.22,.11,.47,.72,.86,.54,1.26Z"/><path class="cls-2" d="M392.54,307.48c-.32-.32-.32-.94-.29-1.58-2.81,.18-4.61,1.37-6.55,2.41,2.27,.86,5.65,.65,6.66,2.77,.14,1.98-1.15,2.48-1.98,3.42-2.66,1.08-6.01,2.09-9.43,1.04-.36-.36-.97-.94-.65-1.66,3.46,1.12,8.1,.04,9.86-2.38-1.58-.94-6.19-.47-6.33-3.02-.07-1.62,1.62-1.62,2.2-2.77,2.66-.4,4.9-3.13,7.77-1.69,0,.32,.22,.43,.29,.65-.29,1.12-.68,2.2-1.55,2.81Z"/><path class="cls-2" d="M391.68,319.11c0-.25,.11-.43,.18-.65,.22-.36,.72-.43,.72-1.04,1.84-.83,2.66-2.66,4.36-3.6,.4,.04,.58,.25,.76,.5-.4,2.84-3.2,4.14-5.4,5.51-.36-.11-.43-.5-.61-.72Z"/><path class="cls-2" d="M424.26,305.22c-.47,.25-1.08,.72-.94,1.26-.18,.04-.18-.11-.32-.11-.9,1.12-1.98,2.05-3.42,2.7-.14,.72-.83,.94-1.22,1.44-1.26,.22-1.66,.76-2.27,1.66-.4-.32-.76,.47-1.15,.11,.25,.4,.07,.4-.54,.83-.18,.14-.47,.61-.83,.83-.22,.14-.58,.11-.72,.22-.14,.11,.04,.29-.11,.4-.4,.5-1.12,.58-1.22,1.04-.4-.07,0-.36-.22-.5-.65,.79-1.4,2.52-2.99,1.87,0-.43,.11-.86,.29-1.37,4-3.67,8.57-6.7,12.56-10.37-1.33-.04-2.12,.65-3.13,.32-.97,.86-2.81,.94-4.64,.94-1.19-.54-.83-2.09,.11-2.59,3.56,.54,6.7-1.55,10.37-1.26,.32,.22,.22,.86,.83,.83-.04,.72-.5,.97-.43,1.76Zm-12.63,9.75,.61-.54,12.02-10.66"/><path class="cls-2" d="M429.62,318.17c-.9,.07-1.19-.47-1.55-.9,.86-1.91,2.63-3.71,3.71-5.72,1.08-.97,1.73-2.09,2.7-3.2,.9-1.04,2.12-1.87,3.02-2.92,1.4-1.62,1.94-3.85,3.42-5.29,.72,.07,.94,.65,1.22,1.15-.04,.54-.32,.83-.5,1.26,2.45-1.01,5.44-2.23,8.6-2.7,2.3-.11,4.97,.47,5.29,2.99-.97,4.79-6.16,5.33-10.48,6.73-2.38,.18-5.83,.79-7.45-1.12-2.66,3.28-5.65,6.16-7.99,9.72Zm14.18-14.79c-1.69,1.44-4.57,1.69-5.29,4.14,.76,.68,2.23,.72,3.35,.72,3.67-.04,7.42-1.51,9.83-2.92,.94-.83,2.3-1.66,2.3-3.1-.94-1.3-3.64-.5-5.4-.5-1.62,.5-3.2,1.04-4.79,1.66Z"/><path class="cls-2" d="M453.34,316.52c-.29,0-.5,0-.65,.11-.61-.36-1.12-.86-1.12-1.87,.58-.36,1.51-.68,2.16-.18,.32,.83-.14,1.4-.4,1.94Z"/><path class="cls-2" d="M467.46,315.22c-1.01-1.37-.14-3.46,.5-4.68-1.87,2.2-3.31,4.17-4.68,6.84-1.19,.65-1.37-.4-1.44-1.44,3.2-5.22,7.27-9.61,10.91-14.4,.79,.07,1.04,.65,1.33,1.22-1.33,2.48-2.81,4.79-4.14,7.27-.36,1.15-.83,1.76-1.15,2.81,1.19-.47,2.27-1.91,3.53-2.59,1.69-2.12,4.1-3.49,5.79-5.62,.83,0,.9-.76,1.66-.83,.65,.18,.83,.76,1.15,1.26-.36,3.35-2.38,4.9-2.7,8.06-.5,.61-.07,1.58-.83,1.87-.4,0-.4-.43-.72-.5-.25-3.35,1.4-5.83,2.27-8.1-1.76,1.26-3.67,3.28-5.36,4.97-2.02,1.26-3.02,4.03-6.12,3.85Zm6.12-3.85"/><path class="cls-2" d="M484.02,316.52c-.29,0-.5,0-.65,.11-.61-.36-1.12-.86-1.12-1.87,.58-.36,1.51-.68,2.16-.18,.32,.83-.14,1.4-.4,1.94Z"/></g><g><path class="cls-4" d="M382.23,327.3h.94c.04-.5-.72,.22-.65-.43,.65,.11,1.55,0,2.3,.11-.22,.36-.5,.29-.72,.11-.07,.58-.32,.43-.43,.83-4.82,0-9.11,.36-14.51,.61-4.36,4.14-7.92,9.11-11.63,13.89-.36,.9-.68,1.87-1.55,2.3-.97-.43-.14-2.38,.32-3.35,1.01-2.02,2.99-4.61,4.46-6.52,1.69-2.23,3.53-4.25,4.97-6.01-4.39,.07-9.57,.9-14.22,1.15-.68-.29-.61-1.69-.11-2.09,.14,0,.22-.04,.22-.11,7.2-.22,13.14-1.12,20.44-.94,0-.07,.25-.43,.29-.22,3.06,.18,6.77,.04,10.08,.22,.07,.29-.22,.22-.22,.43Zm-.61-.11c.11-.04,.29,0,.29-.11-.11,0-.29-.04-.29,.11Zm1.84,.11,1.37,.4c-.22,.4-.29-.14-.72,.11,.04-.14,.18-.14,.18-.32,.14,.11,.4,.11,.54,.22Zm.29-.4v.4c-.14-.07-.32-.14-.29-.4h.29Zm.22,.11,.32,.29"/><path class="cls-4" d="M381.47,334c.43-.11,1.91-.54,1.87,.4-2.3,1.01-5.4,1.01-8.21,1.55-1.55,1.48-2.66,3.35-4.14,4.9-.58,.11-.83,.14-1.22-.22,.04-1.66,1.19-2.99,2.05-4.14-1.48,.07-2.12,.32-3.42,.5-1.44,1.01-2.3,2.63-3.53,3.85-.04,.4,.18,.58,.11,1.04-.29-.04-.25,.29-.4,.4-2.81-.04-1.01-3.6,.07-4.36-1.01-.29-1.37,.97-2.77,.61-.14-.43-.43-.76-.32-1.44,1.4-.83,3.17-1.01,4.68-1.22,2.02-1.4,3.2-3.63,5.18-5.11,.36-.14,.54,.11,.94-.07,.22,.22,.61,.25,.72,.61-.65,1.66-2.23,2.41-3.24,3.71,.79,.5,2.52-.58,3.53-.29,1.33-1.87,3.2-3.64,4.25-5.4,1.04-.54,2.2-.4,2.2,.61,0,.68-.76,1.01-1.15,1.48-.79,.9-1.51,2.16-2.05,2.59,1.33,.47,3.13-.36,4.86,0Z"/><path class="cls-4" d="M394.04,331.15c-2.77,.9-6.33,1.3-9.54,2.05-.86,.58-1.44,1.44-2.16,2.2,1.55-.14,3.24-.5,5.4-.43,.61,.36,1.33-.36,1.44,.61-.65,.97-2.66,.5-3.74,1.26-.83,0-1.48,.18-2.05,.4-1.26,.18-2.16,.04-2.7,.83,1.37,.83,3.1,.11,4.36,.54-.76,1.55-3.38,1.69-5.29,1.44-.18-.29-.58-.4-.83-.61-.61-1.04-1.26-3.02,.61-3.1,.43-.79,.97-1.48,1.55-2.09-.18-.54-.76-.76-.61-1.66,.11,0,.07-.14,.11-.22,.36-.36,1.15-.29,1.55-.61,2.16,.18,2.59-1.8,4.68-1.37,.22,.18,.4,.4,.61,.54,2.3-.29,4.28-.61,6.55-.32,.04,.14-.14,.54,.07,.54Z"/><path class="cls-4" d="M410.53,329.86c0,.32-.29,.36-.22,.72-3.46,3.28-6.62,7.09-10.08,10.69-1.37,1.48-2.48,3.1-4.64,3.42-.43-1.8,1.51-1.87,1.76-3.31,3.67-3.24,6.55-7.31,10.04-10.69,.29-.68,.79-1.15,1.15-1.76,.04-.07,.11-.18,.11-.32,.54,.04,1.22-.07,1.66,.11,.11,.32,.25,.68,.22,1.15Zm-11.41,13.57c4.86-.5,9.14-1.62,13.25-2.88,4.46-1.8,8.85-3.6,12.24-6.44,.58-.94,2.12-2.05,2.09-3.42-.04-.9-.65-1.08-1.04-1.87-6.55-3.38-18.83-1.87-24.87,1.37-1.15,.5-.94,2.38-2.7,2.27-1.33-1.4,.61-2.92,1.44-3.74,5.87-3.42,17.64-4.61,25.41-2.38,1.19,.68,2.34,1.48,3.2,2.48,.07,.61,.32,1.04,.43,1.66-.14,.97-.4,1.76-.65,2.59-2.99,4.57-8.57,6.55-13.86,8.82-4.61,1.19-9.21,3.06-14.33,2.81-.11-.5-.43-.79-.61-1.26Z"/><path class="cls-4" d="M434.79,342.71c-.58,.32-1.22,.07-1.98,.29-.43-.14-.97-.18-1.55-.22-2.38-.54-3.82-2.05-4.28-4.54,.72-7.02,6.26-8.82,11.52-10.37,.07,0,.07,.04,.11,.14,2.2-.25,3.78,.68,4.97,1.87,.11,1.22,.58,2.2,1.33,2.88,1.19,4.25-1.91,6.55-4.28,8.13-.36,.25-.43-.25-.72-.04-.58,.5-1.33,1.12-2.05,.9-.72,.65-2.09,1.22-3.06,.94Zm3.67-12.85c-.36,.43-.83,.14-1.37,.32-3.6,1.12-9.43,4.54-7.88,9.57,3.02,4.1,11.16-.04,13.57-2.95,.79-1.22,.9-3.49,.07-4.57-.43-.11-.54-.47-.76-.79-.68-.11-1.3-.36-1.73-.72-.25-.58,.29-.61,.36-.79-.18-.04-.36-.04-.5-.04-.32-.18-1.19,.04-1.76-.04Zm-5.69,13.46"/><path class="cls-4" d="M464.42,330.07c.14,.14,.32,.07,.29-.22,.14,0,.14-.14,.32-.11-.18,.47-.54,.79-.83,1.15-.22-.14-.4-.4-.32-.83-.5,.4,.14,.97-.07,1.33-.47,.07,.11-.4-.32-.4,0-.14,0-.29-.11-.32-.25,0-.04,.36,.11,.32,.04,.79-.97,2.3-1.37,1.94-.18,.18-.29,1.37-.83,.83-.94,2.48-3.17,4.14-4.43,6.44-.14,0-.25-.04-.32-.11,.07,1.33-1.37,1.15-1.98,1.26-.4-.29-.86-.43-1.12-.83-.11-1.69,.83-2.95,1.12-4.17,.14-.58-.07-1.19,.32-1.66-.94,.79-2.2,1.19-2.7,2.41-.11-.04-.14-.14-.22-.22-1.44,2.12-2.95,3.38-4.64,4.97-.47-.18-.83-.25-1.26,0-.4-.29-.72-.65-1.04-1.04,.72-3.42,1.76-5.69,3.31-7.96,.29-1.37,1.12-2.77,2.59-3.24,.79,.29,1.33,.94,.94,2.09h-.5c-1.26,1.94-2.56,3.85-3.31,6.33,2.27-1.91,3.89-4.46,6.62-5.94,1.69-.25,2.27,1.26,2.2,3.13-.22,.76-.54,1.33-.54,2.05,1.08-1.19,2.02-3.1,3.2-3.82,.22-1.08,1.51-1.58,1.98-2.7,.14,.04,.11,.22,.22,.32,.22,0,.04-.4,.11-.54,.58,.32,.97-1.19,1.66-1.44,.29,.22-.14,.61,0,1.04,.54-.76,1.12-1.44,1.76-2.09,.25,.36-.36,.76-.54,1.04,.18,.4,.18,.32,0,.72-.14,0-.25,.07-.29,.22Zm-12.96,7.13,1.22-1.22c-.18,0-.25,.07-.29,.22,.18,0,.25-.11,.29-.22Zm6.34,.72,1.26-2.92,4.14-4.97c0,.11-.14,.07-.22,.11,0-.11,.14-.07,.22-.11Z"/><path class="cls-4" d="M474.93,330.25c-2.56,2.99-3.92,7.24-6.12,10.66-.47,.07-.68,.43-1.12,.54-2.77-.65-2.41-4.32-1.98-6.66-1.44,1.73-2.81,3.56-3.74,5.83-.36-.04-.36,.29-.72,.29-.43-.29-.68-.76-.94-1.22,1.48-3.82,4.57-5.94,6.23-9.54,.65-.11,1.37,0,1.76,.29-.4,2.66-1.08,5.47-.94,8.5,2.09-2.2,2.84-5.72,5.18-7.67,.32-.97,.97-1.66,1.55-2.38,.58-.07,.86,.22,1.04,.5,.07,.43-.29,.43-.22,.86Z"/><path class="cls-4" d="M482.74,333.24c-.32-.32-.32-.94-.29-1.58-2.81,.18-4.61,1.37-6.55,2.41,2.27,.86,5.65,.65,6.66,2.77,.14,1.98-1.15,2.48-1.98,3.42-2.66,1.08-6.01,2.09-9.43,1.04-.36-.36-.97-.94-.65-1.66,3.46,1.12,8.1,.04,9.86-2.38-1.58-.94-6.19-.47-6.33-3.02-.07-1.62,1.62-1.62,2.2-2.77,2.66-.4,4.9-3.13,7.78-1.69,0,.32,.22,.43,.29,.65-.29,1.12-.68,2.2-1.55,2.81Z"/><path class="cls-4" d="M492.89,330.15c1.66-.04,4.18-.76,5.29,0-.18,1.01-1.51,.83-2.48,1.04-1.33,.47-2.63,.83-4.03,1.01-1.4,1.37-2.27,3.28-3.74,4.57-.22,.94-1.15,1.22-1.33,2.2-.79,.4-.76,1.62-1.98,1.55-.14-.29-.14-.72-.22-1.04,1.01-2.63,2.81-4.43,4.03-6.84-1.3,.18-3.64,.79-5.36,.11-.18-.61-.14-1.19-.22-1.66,.65-.65,1.33,0,2.16,.11,1.55,.18,3.28-.5,4.79-.54,.76-.61,1.19-1.91,2.81-1.33,.11,.22,.14,.58,.29,.83Z"/><path class="cls-4" d="M501.53,331.8c-.47,1.55-.9,3.1-1.44,4.57,2.41,.18,4.1-.79,6.23-.11-.07,.65-.97,.43-1.37,.72-1.69,.18-3.38,.65-4.97,.83-.68,.58-.07,2.45-1.04,2.7-1.19-.07-1.01-1.26-.83-2.27-.9-.04-2.52,.5-3.64,.72-.94,.68-1.94,2.92-3.42,1.76-.07-.72,.5-.79,.72-1.22-1.15,.5-2.59,.32-2.77-.94,.07-.32,.5-.32,.61-.65,1.66,0,2.34-.18,3.82-.5,2.38-2.52,4.61-5.15,6.88-7.77,.72-.36,1.44-.25,1.94,.32,.11,.94-.36,1.33-.72,1.83Zm-5.4,5.18c.68-.11,1.26-.32,2.09-.29,.36-.83,.58-1.84,.83-2.81,.32-.04-.11-.43,0,0-1.08,.9-1.94,2.09-2.92,3.1Z"/><path class="cls-4" d="M513.84,330.11c2.23,.22,3.49-.04,5.04,.76-.68,.94-2.92,.76-4.1,.76-.72,.25-1.66,.29-2.52,.4-2.48,2.12-4.64,4.64-6.66,7.27,1.91-.04,3.78-.65,5.44-.18,.32,.07,.25-.43,.72-.29,0,.5,.36,.14,.58,.43,0,.47-.54,.4-.76,.72-2.45,.32-5.26,.65-7.24,1.22-1.19-.04-2.3,.5-2.99-.4,.07-.9,.97-.86,1.62-1.04,1.55-2.88,3.71-5.04,5.76-7.34-1.62,.29-5.11,1.12-3.89-1.4,1.76-.36,3.49-.5,5.65-.65,1.01-.54,1.26-1.76,2.81-1.44,.11,.47,.68,.5,.54,1.19Z"/><path class="cls-4" d="M526.23,339.83c1.22,.14,2.66,.07,3.2,.94-1.58,.83-3.49,.43-5.08,.07-2.23,.25-4.79-1.44-6.51-2.66-2.38-.18-2.59,1.8-3.13,3.49-.5,.36-1.04,.4-1.55,.11-.68-1.66,.36-3.31,1.37-4.43-.25-.43-.14-.61-.11-1.15,.36-.36,.61-.83,1.44-.72,1.62-1.22,2.81-2.88,4.36-4.18,1.44-.76,3.02-1.8,4.36-2.38,2.41-.94,5.94,0,4.97,3.42-2.27,2.66-5.51,4.21-9.11,5.18,1.4,1.26,3.71,1.69,5.8,2.3Zm.61-7.67c.47-.47,.68-1.15,.65-1.76-4.43,.36-6.8,2.99-9.25,5.79,2.63-.72,6.7-2.09,8.6-4.03Z"/><path class="cls-4" d="M539.76,333.24c-.32-.32-.32-.94-.29-1.58-2.81,.18-4.61,1.37-6.55,2.41,2.27,.86,5.65,.65,6.66,2.77,.14,1.98-1.15,2.48-1.98,3.42-2.66,1.08-6.01,2.09-9.43,1.04-.36-.36-.97-.94-.65-1.66,3.46,1.12,8.1,.04,9.86-2.38-1.58-.94-6.19-.47-6.33-3.02-.07-1.62,1.62-1.62,2.2-2.77,2.66-.4,4.9-3.13,7.77-1.69,0,.32,.22,.43,.29,.65-.29,1.12-.68,2.2-1.55,2.81Z"/></g></g><g id="glasses-2"><path class="cls-1" d="M528.44,293c-6.32-.49-12.7-.61-18.96-1.55-11.79-1.76-23.54-3.85-34.83-7.94-9.81-3.56-19.04-8.18-27.2-14.66-6.29-5-11.72-10.92-16.46-17.45-5.07-6.98-9.62-14.3-13.26-22.08-3.49-7.48-6.54-15.2-9.27-22.99-3.23-9.22-6.03-18.61-8.8-27.98-3.12-10.54-5.92-21.17-9-31.71-1.82-6.2-6.31-9.39-12.6-10.06-3.55-.38-7.11-.57-10.68-.76-3.71-.19-7.44-.58-11.12-.31-5.79,.41-11.7,.02-17.33,1.9-4.5,1.5-7.42,4.66-8.75,9.16-2.18,7.33-4.23,14.71-6.33,22.07-2.4,8.41-4.66,16.86-7.21,25.22-3.67,12.05-7.94,23.9-13.41,35.26-3.55,7.36-7.57,14.5-12.54,21.01-3.32,4.36-6.64,8.8-10.53,12.64-3.81,3.76-8.22,6.96-12.56,10.12-5.04,3.67-10.65,6.35-16.43,8.68-7.01,2.83-14.17,5.15-21.58,6.62-4.42,.88-8.82,1.84-13.27,2.55-3.5,.56-7.1,.59-10.58,1.23-6.53,1.22-13.11,.78-19.64,.6-6.05-.16-12.09-1.01-18.1-1.79-5.32-.69-10.62-1.55-15.87-2.64-4.99-1.03-9.94-2.34-14.85-3.72-8.05-2.27-15.82-5.29-23.18-9.28-5.64-3.06-10.99-6.54-15.92-10.7-6.03-5.09-11.28-10.88-15.43-17.53-3.02-4.84-5.59-10.01-7.82-15.26-2.5-5.86-4.71-11.88-6.47-18-2.09-7.29-3.72-14.73-5.27-22.17-1.44-6.92-2.6-13.89-3.71-20.87-.79-4.95-1.24-9.95-1.95-14.92-1.09-7.59-1.87-15.26-5.59-22.2-3.57-6.65-8.65-11.54-16.07-13.48-1.96-.51-2.78-1.39-3-3.21-.35-2.85-.87-5.68-1.06-8.54-.18-2.8-.2-5.64,0-8.44,.31-4.43,1.4-5.33,4.84-5.89,4.93-.8,9.83-1.77,14.76-2.56,5-.8,10.02-1.53,15.04-2.2,2.67-.36,5.38-.51,8.06-.8,4.01-.45,8.02-.98,12.03-1.41,3.12-.33,6.25-.52,9.36-.83,4.51-.46,9.01-.98,13.52-1.45,1.78-.18,3.56-.3,5.34-.4,4.37-.26,8.74-.51,13.11-.75,6.65-.38,13.3-.77,19.95-1.12,5.24-.28,10.48-.61,15.73-.73,9.75-.21,19.5-.45,29.24-.34,7.21,.08,14.43,.53,21.62,1.11,6.47,.52,12.92,1.29,19.34,2.23,10.55,1.53,21.02,3.46,31.29,6.38,8.63,2.46,16.88,5.87,24.94,9.74,6.28,3.01,12.41,6.35,18.63,9.48,4.52,2.27,9.24,2.78,14.21,1.63,2.6-.6,5.31-1.06,7.97-1.08,20.1-.09,40.21-.11,60.31,.02,3.26,.02,6.52,.85,9.76,1.45,3.57,.66,6.98,0,10.12-1.51,6.62-3.16,13.02-6.77,19.68-9.84,6.12-2.82,12.4-5.3,18.7-7.73,8.89-3.42,18.23-5.19,27.53-7.01,4.61-.9,9.31-1.35,13.98-1.94,5.1-.65,10.2-1.26,15.31-1.84,1.9-.21,3.81-.32,5.71-.4,3.71-.16,7.42-.31,11.13-.37,9.56-.16,19.12-.38,28.68-.34,6.55,.03,13.1,.43,19.65,.72,4.62,.2,9.24,.42,13.86,.75,6.07,.43,12.13,.99,18.19,1.46,3.62,.28,7.25,.44,10.87,.78,4.27,.41,8.51,.99,12.78,1.43,3.12,.32,6.25,.48,9.37,.8,4.08,.43,8.15,.95,12.22,1.42,3.35,.39,6.7,.74,10.03,1.19,4.3,.57,8.59,1.17,12.87,1.85,4.39,.69,8.78,1.43,13.15,2.28,3.13,.6,4.34,2.14,4.38,5.38,.05,3.75,.22,7.51-.06,11.24-.2,2.7-1.02,5.36-1.65,8.01-.1,.43-.64,.98-1.07,1.07-9.66,2.08-15.27,8.53-18.91,17.23-2.24,5.36-2.91,11.04-3.72,16.71-1.05,7.37-2.13,14.74-3.33,22.09-1.29,7.88-2.58,15.76-4.18,23.58-1.07,5.23-2.6,10.37-4.07,15.51-2.55,8.92-6.12,17.45-10.34,25.71-4.47,8.75-10.44,16.34-17.74,22.84-6.97,6.21-14.92,11.05-23.42,14.86-9.57,4.29-19.55,7.43-29.82,9.54-5.91,1.21-11.89,2.04-17.84,3.04-8.09,1.37-16.25,1.98-24.48,2.2Zm-334.49-13.42c0,.09,.01,.18,.02,.28,6.48-.34,13-.36,19.43-1.12,7.42-.87,14.71-2.53,21.93-4.65,7.43-2.18,14.33-5.36,20.87-9.34,5.45-3.31,10.41-7.35,14.55-12.26,3.08-3.65,6.26-7.26,8.86-11.24,5.54-8.49,10.22-17.48,14.07-26.89,3.25-7.94,6.49-15.88,8.19-24.31,1.47-7.28,3.22-14.56,3.87-21.93,.72-8.08,.24-16.23-1.68-24.25-2.37-9.83-6.71-18.53-13.81-25.77-5.93-6.04-12.98-10.19-20.91-13.17-8.6-3.23-17.49-5.23-26.46-6.76-8.5-1.44-17.12-2.16-25.71-3.06-4.1-.43-8.24-.58-12.36-.76-4.39-.19-8.79-.42-13.18-.36-11.47,.16-22.93,.39-34.39,.75-5.53,.17-11.07,.6-16.58,1.12-4.74,.45-9.48,1.08-14.18,1.85-9.18,1.5-18.02,4.13-26.11,8.87-3.94,2.31-7.46,5.14-10.36,8.72-4.84,5.98-7.09,13.18-8.78,20.39-1.49,6.33-2.13,12.96-2.28,19.48-.17,7.51,.59,15.04,1,22.55,.18,3.31,.31,6.65,.8,9.93,.83,5.54,1.76,11.07,2.97,16.54,1.08,4.91,2.24,9.86,4.01,14.55,2.31,6.12,5.04,12.11,7.98,17.96,2.61,5.19,6.01,9.93,10.14,14.1,5.16,5.23,10.97,9.63,17.25,13.37,6.35,3.79,13.07,6.86,20.15,9,7.93,2.41,15.97,4.4,24.31,4.94,5.95,.39,11.87,1.04,17.82,1.43,2.85,.19,5.72,.03,8.59,.03Zm332.8,0c0,.13,.02,.27,.03,.4,7.7-.51,15.4-.9,23.09-1.56,5.12-.43,10.28-.85,15.28-1.95,11.27-2.47,22.19-6.06,32.16-12.08,8.83-5.33,17.06-11.39,22.94-20.05,2.79-4.11,5.51-8.36,7.59-12.86,2.7-5.82,5-11.87,6.99-17.98,1.54-4.72,2.55-9.64,3.41-14.54,.99-5.65,1.7-11.37,2.28-17.08,.65-6.42,1.19-12.86,1.46-19.31,.18-4.32-.13-8.67-.34-12.99-.14-2.76-.23-5.56-.81-8.24-1.03-4.72-2.24-9.42-3.7-14.03-2.06-6.53-5.54-12.28-10.82-16.73-5.28-4.46-11.5-7.31-17.99-9.49-7.41-2.48-15.07-3.95-22.82-4.86-5.55-.65-11.12-1.15-16.69-1.49-6.35-.39-12.72-.71-19.08-.74-9.37-.04-18.75,.15-28.12,.36-4.56,.1-9.12,.41-13.67,.73-6.19,.44-12.38,.88-18.56,1.52-4.25,.44-8.5,1-12.67,1.88-6.83,1.44-13.65,3.01-20.38,4.85-8.56,2.34-16.44,6.21-23.07,12.2-5.17,4.67-9.33,10.13-12.37,16.52-3.44,7.23-5.15,14.88-5.8,22.7-.6,7.31-.33,14.71,1.04,21.98,1.36,7.22,2.51,14.5,5.17,21.42,2.74,7.13,5.14,14.42,8.23,21.39,2.72,6.14,6.04,12.03,9.4,17.85,3.96,6.84,8.64,13.15,14.52,18.55,3.94,3.62,8,7.02,12.69,9.59,3.68,2.01,7.3,4.22,11.18,5.73,7.82,3.04,15.87,5.47,24.26,6.45,6.03,.7,12.06,1.31,18.11,1.83,2.35,.2,4.73,.03,7.09,.03Zm-326.69,4.05c.03-.06,.05-.12,.08-.19h-14.37c0,.06,0,.12,0,.19h14.29Zm335.01,0c.02-.06,.05-.12,.07-.19h-14.36c0,.06,0,.12,0,.19h14.29Z"/></g></svg>